<svg xmlns="http://www.w3.org/2000/svg" version="1.1" xmlns:xlink="http://www.w3.org/1999/xlink" xmlns:svgjs="http://svgjs.dev/svgjs" width="600" height="680" preserveAspectRatio="none" viewBox="0 0 600 680">
    <g mask="url(&quot;#SvgjsMask1192&quot;)" fill="none">
        <rect width="600" height="680" x="0" y="0" fill="rgba(1, 8, 53, 1)"></rect>
        <path d="M0,304.993C56.721,304.859,103.094,265.246,152.015,236.54C203.091,206.569,266.406,186.748,292.288,133.483C318.284,79.983,303.783,15.8,287.003,-41.265C271.797,-92.976,233.318,-131.115,201.655,-174.735C166.625,-222.992,149.037,-296.039,91.285,-310.889C33.289,-325.802,-16.297,-267.161,-71.965,-245.092C-121.357,-225.511,-178.832,-224.902,-217.509,-188.472C-257.913,-150.415,-284.016,-96.783,-288.185,-41.435C-292.237,12.35,-263.574,61.093,-239.961,109.587C-216.908,156.93,-193.31,204.012,-152.479,237.262C-108.462,273.106,-56.765,305.128,0,304.993" fill="#010523"></path>
        <path d="M600 864.376C642.851 864.369 686.358 892.734 725.479 875.249 765.486 857.3679999999999 793.0550000000001 815.6030000000001 804.037 773.1800000000001 814.3820000000001 733.216 787.619 694.715 782.829 653.713 777.858 611.163 801.1220000000001 562.273 775.3969999999999 528.018 749.7239999999999 493.832 699.439 490.723 656.939 486.082 619.671 482.012 583.999 492.44 548.085 503.19399999999996 512.361 513.891 471.11 519.0509999999999 448.305 548.556 425.72 577.776 431.212 618.68 430.289 655.599 429.46500000000003 688.545 436.728 719.287 443.22900000000004 751.595 451.79200000000003 794.149 439.259 849.94 474.495 875.289 509.288 900.319 557.139 864.383 600 864.376" fill="#010b48"></path>
    </g>
    <defs>
        <mask id="SvgjsMask1192">
            <rect width="600" height="680" fill="#ffffff"></rect>
        </mask>
    </defs>
</svg>